# xmcd
#
# Track frame offsets:
#	150
#	18581
#	32924
#	47564
#	64791
#	83041
#	104283
#	122461
#	139190
#	158719
#	175809
#	193800
#	210773
#	230075
#	246358
#	262423
#	281937
#	299687
#
# Disc length: 4257 seconds
#
# Revision: 1
# Processed by: cddbd v1.5.2PL0 Copyright (c) Steve Scherf et al.
# Submitted via: EasyCDDAExtractor 15.3.0.1
#
DISCID=12109f12
DTITLE=Nek - Greatest Hits 1992-2010 - Es Asi - CD 1
DYEAR=2011
DGENRE=Latin
TTITLE0=Es Asi
TTITLE1=Vulnerable
TTITLE2=Para Ti
TTITLE3=Amami
TTITLE4=En Ti
TTITLE5=Corazones En Tempestades
TTITLE6=Angeles Del Ghetto
TTITLE7=Dime Por Que
TTITLE8=Tu Estas Aqui
TTITLE9=Laura No Esta
TTITLE10=Tu Nombre
TTITLE11=Si Se Que Te Tengo A Ti
TTITLE12=Quedate
TTITLE13=No Preguntes Por Que
TTITLE14=Su Tal Vez, Su Quiza
TTITLE15=Llegas Tu
TTITLE16=En El Tren
TTITLE17=La Vida Es
EXTD=
EXTT0=
EXTT1=
EXTT2=
EXTT3=
EXTT4=
EXTT5=
EXTT6=
EXTT7=
EXTT8=
EXTT9=
EXTT10=
EXTT11=
EXTT12=
EXTT13=
EXTT14=
EXTT15=
EXTT16=
EXTT17=
PLAYORDER=
